# xmcd CD database file
#
# Track frame offsets:
#	150
#	12972
#	25699
#	37772
#	51254
#	63424
#	75569
#	86876
#	98696
#	114099
#	138541
#	156880
#	170534
#	185774
#	204779
#	218879
#	233652
#	249797
#	267290
#	287385
#
# Disc length: 4151 seconds
#
# Revision: 0
# Processed by: cddbd v1.4PL0 Copyright (c) Steve Scherf et al.
# Submitted via: Feurio! 1.66 - http://www.feurio.com
#
DISCID=fd103514
DTITLE=Tyrone Davis - 20 Greatest Hits
DYEAR=1900
DGENRE=
TTITLE0=Can I Change My Mind
TTITLE1=A Woman Needs To Be Loved
TTITLE2=Is It Something You've Got
TTITLE3=Turn Back The Hands Of Time
TTITLE4=I'll Be Right Here
TTITLE5=Let Me Back In
TTITLE6=Could I Forget You
TTITLE7=One-Way Ticket (To Nowhere)
TTITLE8=You Keep Me Holding On
TTITLE9=I Had It All The Time
TTITLE10=Was I Just A Fool
TTITLE11=If You Had A Change In Mind
TTITLE12=Without You In My Life
TTITLE13=There It Is
TTITLE14=Wrapped Up In Your Warm and Tender Love
TTITLE15=I Wish It Was Me
TTITLE16=What Goes Up (Must Come Down)
TTITLE17=Happiness Is Being With You
TTITLE18=Turning Point
TTITLE19=It's So Good (To Be Home With You)
EXTD=
EXTT0=
EXTT1=
EXTT2=
EXTT3=
EXTT4=
EXTT5=
EXTT6=
EXTT7=
EXTT8=
EXTT9=
EXTT10=
EXTT11=
EXTT12=
EXTT13=
EXTT14=
EXTT15=
EXTT16=
EXTT17=
EXTT18=
EXTT19=
PLAYORDER=
